# xmcd CD database file
#
# Track frame offsets:
#	150
#	21535
#	43040
#	64425
#
# Disc length: 1143 seconds
#
# Revision: 0
# Processed by: cddbd v1.5.1PL2 Copyright (c) Steve Scherf et al.
# Submitted via: CDex 1.51
#
DISCID=38047504
DTITLE=富田麻帆 - Wing of Destiny
DYEAR=2006
DGENRE=Game
TTITLE0=Wing of Destiny
TTITLE1=人魚の音色
TTITLE2=Wing of Destiny *karaoke
TTITLE3=人魚の音色 *karaoke
EXTD=YEAR: 2006
EXTT0=
EXTT1=
EXTT2=
EXTT3=
PLAYORDER=
